<svg xmlns="http://www.w3.org/2000/svg" viewBox="0 0 2000 2000"><g transform="translate(0.000000,2000.000000) scale(0.100000,-0.100000)" fill="#ffffff"><path d="M8759 18750 c-150 -6 -213 -12 -235 -22 -17 -9 -73 -18 -139 -21 -60
-4 -128 -13 -150 -21 -22 -8 -69 -16 -105 -16 -36 0 -83 -8 -105 -17 -22 -8
-80 -19 -130 -24 -49 -5 -107 -16 -128 -24 -20 -8 -47 -15 -60 -15 -12 0 -35
-7 -52 -16 -16 -9 -61 -19 -100 -21 -43 -3 -82 -13 -101 -24 -17 -11 -40 -19
-51 -19 -10 0 -44 -9 -76 -20 -31 -11 -70 -20 -87 -20 -17 0 -48 -9 -70 -20
-22 -11 -48 -20 -59 -20 -11 0 -53 -16 -93 -35 -40 -20 -98 -40 -128 -44 -30
-5 -90 -25 -132 -45 -42 -20 -86 -36 -96 -36 -11 0 -55 -18 -98 -40 -43 -22
-87 -40 -97 -40 -10 0 -35 -9 -55 -19 -109 -57 -207 -101 -226 -101 -11 0 -47
-18 -80 -40 -32 -22 -68 -40 -80 -40 -11 0 -47 -18 -80 -40 -32 -22 -63 -40
-69 -40 -6 0 -18 -7 -28 -16 -10 -9 -37 -20 -60 -25 -23 -6 -58 -22 -78 -37
-20 -15 -70 -45 -111 -66 -41 -21 -86 -48 -100 -61 -14 -12 -38 -29 -55 -37
-71 -35 -131 -70 -150 -87 -11 -10 -36 -26 -55 -36 -19 -10 -44 -26 -56 -37
-19 -17 -74 -53 -158 -105 -16 -10 -50 -35 -77 -55 -27 -21 -53 -38 -58 -38
-5 0 -41 -26 -79 -57 -69 -57 -132 -100 -198 -136 -18 -10 -63 -46 -101 -81
-37 -35 -86 -74 -108 -88 -22 -14 -109 -91 -193 -171 -84 -80 -162 -149 -172
-152 -11 -3 -22 -15 -25 -26 -4 -11 -24 -31 -45 -44 -46 -29 -333 -318 -360
-363 -11 -18 -30 -37 -43 -43 -12 -5 -30 -23 -39 -40 -9 -16 -28 -34 -42 -41
-14 -6 -28 -19 -31 -28 -3 -10 -46 -62 -96 -116 -50 -55 -98 -112 -106 -129
-9 -16 -32 -48 -53 -71 -20 -22 -53 -65 -73 -96 -19 -31 -40 -59 -46 -63 -6
-3 -20 -24 -31 -45 -11 -21 -47 -69 -80 -107 -34 -37 -79 -101 -102 -141 -22
-40 -62 -98 -89 -129 -27 -31 -49 -61 -49 -67 0 -7 -23 -39 -51 -71 -28 -33
-59 -76 -68 -95 -47 -90 -57 -108 -85 -145 -17 -22 -55 -88 -84 -147 -29 -58
-60 -112 -68 -119 -17 -14 -79 -141 -88 -180 -3 -14 -21 -45 -41 -70 -19 -24
-35 -48 -35 -54 0 -5 -23 -53 -50 -105 -27 -52 -63 -122 -79 -154 -17 -33 -31
-63 -31 -69 0 -5 -8 -21 -19 -35 -10 -15 -21 -44 -24 -65 -3 -21 -19 -55 -36
-75 -16 -21 -33 -51 -36 -68 -3 -16 -14 -49 -24 -74 -10 -25 -24 -61 -31 -80
-27 -76 -36 -97 -53 -123 -9 -14 -17 -34 -17 -44 0 -10 -18 -58 -40 -108 -22
-49 -40 -97 -40 -107 0 -10 -16 -50 -35 -90 -20 -40 -38 -95 -42 -123 -3 -27
-13 -63 -21 -80 -8 -16 -19 -46 -23 -65 -4 -19 -14 -53 -23 -75 -8 -22 -15
-56 -16 -75 0 -19 -9 -48 -20 -65 -16 -24 -20 -47 -20 -112 0 -48 4 -85 11
-89 13 -8 76 52 85 80 4 12 24 57 45 101 22 43 39 86 39 95 0 12 50 115 203
416 10 19 31 54 47 76 17 23 30 51 30 64 0 26 43 115 80 164 15 19 41 64 59
100 54 108 90 172 109 194 11 12 26 35 34 51 9 17 24 46 33 65 10 19 30 51 45
70 15 19 44 67 65 105 20 39 54 89 75 111 21 23 46 57 56 75 9 19 37 56 61 83
25 28 51 63 60 80 9 16 49 67 89 113 41 45 74 87 74 93 0 6 59 73 131 149 72
77 140 154 151 172 28 45 384 405 428 432 19 11 95 78 168 147 73 69 148 133
166 142 18 9 54 36 82 61 27 24 63 51 79 60 17 8 56 38 88 66 32 28 64 51 70
51 7 0 34 18 61 40 26 22 51 40 55 40 4 0 30 18 60 40 29 22 58 40 63 40 6 0
33 18 60 40 28 22 55 40 60 40 6 0 27 13 47 29 20 15 72 47 116 70 44 24 88
50 99 59 10 10 36 26 57 37 377 191 569 285 583 285 9 0 34 9 54 19 106 56
211 101 233 101 13 0 38 9 54 20 17 11 40 20 51 20 12 0 41 9 65 20 24 11 54
20 66 20 13 0 37 9 55 20 18 11 43 20 55 20 12 0 45 9 73 20 28 11 64 20 81
20 16 0 47 9 69 20 22 11 56 20 77 20 21 0 56 9 78 19 22 10 64 21 94 25 30 4
64 12 75 18 11 6 56 15 99 19 43 4 85 13 94 20 9 8 77 18 166 25 84 7 177 17
207 23 77 14 924 14 975 0 22 -6 99 -16 170 -23 72 -6 139 -17 151 -23 11 -7
64 -16 117 -22 52 -5 104 -14 114 -19 10 -6 45 -13 78 -17 33 -4 70 -14 83
-22 13 -8 56 -17 95 -20 43 -3 85 -13 105 -24 18 -11 41 -19 50 -19 10 0 43
-9 75 -20 31 -11 71 -20 90 -20 18 0 43 -7 56 -17 13 -9 43 -20 66 -24 23 -4
76 -24 118 -43 42 -20 90 -36 107 -36 29 0 87 -24 224 -91 33 -16 65 -29 72
-29 22 0 206 -91 244 -121 19 -15 54 -32 77 -38 23 -6 55 -22 70 -35 30 -25
52 -38 179 -100 43 -22 94 -52 113 -68 18 -16 44 -33 57 -38 14 -6 43 -23 67
-40 77 -56 142 -100 172 -116 17 -9 48 -32 69 -50 22 -19 45 -34 52 -34 7 0
51 -36 100 -80 48 -44 93 -80 100 -80 7 0 86 -69 174 -152 89 -84 172 -159
186 -166 13 -7 35 -31 49 -52 14 -22 44 -52 68 -66 45 -28 93 -77 131 -134 13
-19 80 -95 150 -168 69 -74 126 -139 126 -145 0 -7 27 -43 60 -80 33 -38 60
-72 60 -77 0 -6 24 -38 54 -73 30 -35 61 -77 69 -94 9 -16 35 -51 60 -79 24
-27 51 -63 60 -81 9 -17 39 -57 67 -89 27 -31 50 -63 50 -70 0 -7 13 -28 29
-46 15 -18 36 -49 46 -68 9 -19 28 -46 40 -60 24 -26 55 -77 88 -145 10 -22
28 -50 39 -61 22 -24 84 -143 248 -474 184 -371 190 -384 190 -398 0 -7 18
-51 40 -98 22 -47 40 -94 40 -105 0 -11 9 -37 19 -57 37 -73 61 -133 61 -155
0 -12 9 -35 20 -52 12 -18 20 -47 20 -74 0 -24 8 -62 19 -85 31 -69 52 -138
62 -199 5 -32 16 -68 24 -80 8 -12 15 -35 15 -52 1 -16 9 -48 20 -70 11 -24
19 -62 20 -93 0 -29 9 -74 19 -100 11 -27 22 -84 25 -135 4 -49 11 -97 16
-108 6 -10 15 -69 21 -131 5 -62 16 -130 24 -151 23 -58 22 -1004 -1 -1048 -9
-18 -19 -77 -24 -142 -5 -62 -16 -130 -24 -152 -8 -22 -15 -59 -16 -83 0 -24
-7 -56 -15 -71 -8 -16 -19 -53 -24 -82 -5 -30 -16 -72 -25 -94 -8 -22 -15 -56
-16 -75 0 -19 -9 -48 -20 -65 -11 -16 -20 -41 -20 -55 0 -14 -18 -63 -40 -108
-22 -44 -40 -91 -40 -102 0 -12 -9 -38 -20 -58 -11 -20 -33 -64 -49 -97 -62
-131 -193 -379 -215 -408 -13 -18 -39 -61 -57 -97 -18 -36 -48 -83 -66 -104
-18 -22 -33 -45 -33 -52 0 -7 -18 -34 -40 -59 -22 -25 -40 -52 -40 -59 0 -7
-36 -52 -80 -100 -44 -49 -80 -95 -80 -103 0 -17 -345 -363 -362 -363 -12 0
-56 -37 -149 -125 -36 -35 -79 -70 -96 -78 -16 -9 -51 -35 -79 -60 -27 -24
-64 -52 -82 -61 -18 -9 -52 -34 -74 -54 -22 -20 -58 -46 -80 -57 -208 -107
-565 -285 -571 -285 -5 0 -20 -9 -34 -20 -14 -11 -39 -20 -55 -20 -16 0 -46
-8 -66 -19 -58 -29 -161 -59 -232 -66 -36 -4 -70 -11 -77 -17 -19 -15 -121
-39 -208 -48 -105 -11 -684 -11 -755 0 -30 5 -79 14 -109 20 -64 14 -116 6
-126 -17 -4 -13 16 -38 76 -96 45 -43 96 -85 113 -94 17 -9 48 -31 69 -49 20
-19 42 -34 47 -34 5 0 31 -16 56 -35 26 -20 61 -43 78 -51 73 -35 112 -57 131
-74 11 -10 38 -27 60 -38 22 -11 139 -70 260 -131 121 -61 228 -111 237 -111
10 0 55 -17 100 -38 96 -44 204 -82 233 -82 11 0 34 -9 50 -20 17 -11 39 -20
50 -20 23 0 130 -34 193 -61 23 -11 61 -19 83 -19 22 0 53 -7 69 -15 17 -9 64
-20 105 -25 42 -5 85 -15 97 -21 11 -6 57 -13 102 -16 44 -3 94 -12 109 -20
19 -9 95 -17 240 -24 117 -6 222 -14 235 -20 13 -5 72 -9 132 -9 60 0 119 4
132 9 13 6 118 14 235 20 145 7 221 15 240 24 15 8 65 17 111 20 45 4 91 11
102 17 10 6 47 13 82 16 35 3 84 14 110 25 26 10 63 19 83 19 20 0 53 9 75 20
22 11 48 20 59 20 10 0 38 9 62 20 24 11 60 20 79 20 19 0 52 9 73 20 20 11
44 20 52 20 26 0 139 42 164 61 13 11 35 19 48 19 13 0 61 18 105 40 45 22 89
40 97 40 28 0 575 269 632 312 18 12 49 32 69 43 21 11 60 32 87 47 27 14 55
34 63 43 7 9 30 25 49 36 41 22 108 68 200 136 35 27 71 53 81 58 41 24 116
83 156 123 24 23 48 42 54 42 6 0 58 45 115 100 58 55 111 100 120 100 21 0
475 454 509 509 15 24 63 80 105 125 43 44 86 96 95 113 9 18 37 55 61 83 25
28 54 68 64 88 11 21 27 44 36 52 9 8 26 32 37 54 12 23 36 59 54 80 19 22 34
46 34 53 0 7 15 30 34 50 18 21 42 56 54 78 11 22 30 49 42 60 12 11 28 35 36
55 8 19 25 46 38 60 13 14 49 77 80 140 32 63 61 122 66 130 29 47 90 187 90
205 0 18 9 35 62 114 10 14 18 37 18 50 0 13 8 38 19 55 10 17 21 47 25 67 4
20 20 56 37 79 17 23 37 63 44 89 8 25 20 70 29 99 8 28 22 62 30 74 9 12 16
33 16 46 0 12 16 58 36 100 21 43 39 102 43 134 4 31 13 64 21 73 7 9 19 46
26 83 19 98 34 152 54 197 11 23 22 77 26 130 4 49 13 104 20 122 8 18 14 51
14 73 0 23 7 55 16 71 11 21 17 72 20 172 3 86 11 158 20 183 8 22 18 92 23
156 5 63 14 124 20 136 16 29 15 555 -1 585 -6 12 -15 83 -19 159 -5 83 -14
148 -22 165 -10 19 -16 79 -20 179 -4 103 -10 161 -20 180 -8 16 -17 61 -20
101 -3 40 -10 81 -16 92 -6 10 -14 59 -17 108 -4 56 -13 102 -25 126 -10 21
-19 49 -19 63 0 13 -7 41 -15 60 -8 19 -18 59 -21 87 -4 29 -15 68 -25 87 -11
19 -19 54 -19 77 0 24 -9 60 -20 80 -11 21 -20 46 -20 56 0 10 -9 35 -20 57
-11 22 -20 56 -20 76 0 20 -9 55 -19 78 -37 80 -61 145 -61 166 0 12 -9 33
-20 47 -11 14 -20 37 -20 52 -1 14 -9 44 -20 66 -11 22 -19 44 -20 48 0 5 -9
20 -20 34 -11 14 -20 40 -20 58 0 18 -9 44 -20 58 -11 14 -20 28 -20 31 0 3
-24 56 -54 118 -29 62 -56 124 -60 138 -8 27 -16 45 -131 285 -42 88 -80 167
-86 175 -5 8 -16 31 -25 50 -9 19 -26 46 -39 60 -13 14 -42 61 -65 105 -24 44
-53 91 -65 105 -13 14 -30 41 -40 60 -10 19 -27 46 -40 60 -12 14 -33 46 -48
71 -14 25 -33 52 -42 59 -9 7 -22 27 -29 44 -7 17 -33 54 -58 81 -25 28 -54
68 -66 90 -11 22 -29 48 -40 58 -11 10 -25 31 -32 46 -6 16 -22 33 -35 39 -13
6 -33 28 -44 49 -11 21 -45 65 -77 98 -31 33 -67 76 -79 95 -60 92 -810 840
-843 840 -6 0 -64 50 -129 111 -65 60 -131 117 -148 126 -16 9 -60 44 -97 79
-37 35 -82 71 -100 80 -18 9 -55 37 -82 61 -28 25 -66 53 -86 63 -20 10 -42
26 -50 35 -18 22 -64 45 -90 45 -18 0 -20 -4 -14 -22 14 -46 34 -75 114 -163
46 -49 94 -108 108 -129 13 -22 53 -70 88 -107 35 -38 64 -73 64 -78 0 -6 27
-42 60 -82 33 -39 60 -77 60 -85 0 -7 18 -34 40 -59 22 -25 40 -51 40 -57 0
-5 16 -31 36 -56 35 -47 74 -105 127 -191 16 -25 44 -62 62 -81 18 -19 41 -51
52 -71 43 -86 67 -126 94 -157 16 -18 29 -39 29 -46 0 -8 15 -32 33 -53 18
-22 59 -91 91 -154 32 -63 61 -121 66 -129 32 -62 90 -190 94 -211 3 -15 22
-50 41 -79 19 -29 35 -64 35 -79 0 -14 9 -37 20 -51 11 -14 20 -29 20 -35 0
-21 50 -142 134 -326 14 -31 26 -73 26 -93 0 -20 8 -54 19 -74 27 -54 61 -163
61 -197 0 -17 8 -46 18 -65 11 -19 22 -61 26 -93 3 -32 12 -71 20 -85 7 -15
16 -50 20 -79 4 -28 13 -64 21 -80 8 -15 15 -53 15 -83 1 -30 8 -73 16 -95 9
-22 19 -65 24 -96 4 -30 12 -64 18 -75 5 -10 15 -107 22 -214 8 -138 16 -207
28 -235 15 -35 17 -89 16 -465 0 -373 -2 -430 -17 -463 -10 -24 -20 -91 -27
-190 -6 -84 -15 -163 -20 -177 -5 -14 -14 -54 -19 -88 -6 -35 -15 -70 -20 -76
-6 -7 -13 -46 -17 -87 -4 -41 -15 -93 -25 -116 -11 -23 -19 -49 -19 -58 0 -9
-7 -29 -14 -44 -8 -15 -18 -52 -22 -82 -3 -30 -15 -68 -25 -85 -11 -17 -19
-40 -19 -50 0 -25 -38 -140 -61 -186 -11 -20 -19 -47 -19 -58 0 -18 -78 -187
-110 -240 -5 -8 -31 -60 -57 -115 -26 -55 -62 -120 -80 -144 -18 -24 -33 -54
-33 -66 0 -12 -27 -57 -60 -98 -33 -42 -60 -81 -60 -86 0 -5 -18 -31 -40 -56
-22 -25 -40 -52 -40 -58 0 -7 -41 -57 -91 -112 -50 -55 -101 -116 -114 -135
-28 -44 -278 -296 -317 -320 -16 -9 -73 -58 -128 -108 -101 -92 -141 -113
-179 -92 -28 15 -27 26 14 104 19 37 35 77 35 88 0 12 18 60 41 107 68 142 79
168 79 184 0 8 9 34 20 58 11 24 20 54 20 67 0 12 9 39 20 59 11 21 20 51 20
67 0 26 20 100 51 191 19 55 29 100 29 138 0 21 7 51 15 66 8 16 17 59 21 97
4 38 15 91 25 117 11 26 19 64 19 85 0 20 7 51 16 67 12 22 19 78 25 209 6 98
14 186 19 195 5 10 12 69 16 132 4 71 12 127 23 149 14 31 16 86 15 450 0 357
-2 419 -16 445 -9 17 -19 64 -22 105 -4 41 -11 86 -16 100 -5 14 -14 103 -19
197 -7 109 -15 183 -24 200 -8 16 -17 63 -21 105 -4 43 -13 93 -21 112 -8 20
-15 52 -15 73 -1 21 -9 56 -20 78 -12 25 -19 62 -20 98 0 37 -7 72 -20 97 -11
22 -20 50 -20 62 -1 13 -9 41 -20 63 -11 22 -19 58 -20 80 0 22 -9 55 -20 73
-11 18 -20 44 -20 58 0 13 -9 42 -20 64 -11 22 -20 50 -20 62 0 13 -9 38 -20
56 -11 18 -20 42 -20 53 0 11 -12 46 -26 77 -50 109 -54 120 -54 140 0 10 -18
55 -40 98 -22 43 -40 86 -40 94 0 9 -20 56 -44 105 -24 50 -73 151 -109 226
-37 75 -74 143 -83 150 -10 8 -26 32 -36 54 -11 22 -32 63 -47 90 -15 28 -42
79 -61 115 -18 36 -43 79 -55 95 -21 29 -49 77 -89 154 -10 20 -31 51 -47 69
-16 18 -29 39 -29 47 0 8 -13 29 -28 47 -16 18 -48 68 -71 111 -24 43 -65 103
-92 134 -27 31 -49 62 -49 68 0 7 -36 52 -80 101 -44 49 -80 95 -80 102 0 7
-61 75 -135 151 -74 75 -147 155 -162 176 -41 57 -245 265 -260 265 -7 0 -90
75 -185 166 -95 91 -189 176 -208 189 -19 13 -59 44 -89 69 -29 26 -68 54 -85
63 -17 8 -52 35 -77 58 -25 24 -61 51 -80 60 -19 10 -49 31 -67 46 -18 16 -39
29 -47 29 -8 0 -32 15 -52 34 -21 18 -54 41 -73 51 -19 10 -48 29 -64 42 -15
13 -42 31 -60 39 -72 34 -113 58 -138 79 -25 22 -367 195 -385 195 -4 0 -19 9
-33 20 -14 11 -36 20 -50 20 -14 0 -61 18 -105 40 -44 22 -89 40 -100 40 -11
0 -56 18 -99 40 -43 22 -90 40 -103 40 -13 0 -41 9 -61 19 -20 11 -55 24 -77
29 -22 6 -60 16 -85 22 -25 7 -62 20 -82 31 -20 10 -53 19 -72 19 -19 0 -58 9
-86 20 -28 11 -61 20 -73 20 -12 0 -32 6 -43 14 -11 8 -54 18 -95 21 -40 4
-87 14 -104 22 -16 8 -73 18 -126 23 -53 4 -107 13 -119 20 -12 6 -68 15 -125
19 -57 4 -110 13 -118 20 -32 26 -797 38 -1308 21z"/></g><g transform="translate(0.000000,2000.000000) scale(0.100000,-0.100000)" fill="#ffffff"><path d="M7270 14860 c-52 -4 -111 -12 -130 -17 -19 -6 -86 -14 -148 -18 -61
-3 -128 -13 -147 -21 -19 -7 -59 -14 -89 -14 -31 0 -77 -8 -103 -19 -26 -10
-78 -21 -115 -24 -37 -3 -80 -13 -95 -20 -15 -8 -52 -17 -82 -21 -29 -4 -63
-13 -75 -20 -11 -8 -47 -17 -80 -20 -32 -4 -68 -13 -79 -21 -12 -8 -30 -15
-40 -15 -16 0 -95 -30 -174 -66 -17 -8 -39 -14 -50 -14 -10 0 -33 -9 -51 -20
-18 -11 -42 -20 -53 -20 -20 0 -73 -23 -255 -111 -56 -27 -108 -49 -115 -49
-20 0 -295 -138 -326 -164 -16 -13 -39 -27 -53 -31 -14 -4 -36 -16 -49 -26
-13 -11 -29 -19 -35 -19 -6 0 -33 -18 -60 -40 -26 -22 -54 -40 -61 -40 -8 0
-35 -18 -60 -40 -25 -22 -53 -40 -60 -40 -8 0 -30 -14 -49 -30 -18 -17 -49
-36 -68 -44 -18 -8 -42 -24 -53 -36 -11 -12 -40 -32 -65 -45 -25 -13 -54 -33
-65 -45 -11 -12 -38 -31 -59 -42 -21 -11 -60 -39 -85 -63 -25 -23 -60 -49 -77
-58 -30 -15 -265 -232 -369 -340 -273 -284 -345 -362 -345 -371 0 -6 -36 -50
-80 -99 -44 -48 -80 -93 -80 -100 0 -6 -36 -52 -80 -102 -44 -49 -80 -95 -80
-101 0 -6 -17 -33 -37 -60 -21 -27 -45 -61 -53 -75 -27 -47 -78 -123 -102
-154 -14 -16 -44 -66 -68 -110 -24 -44 -53 -93 -66 -110 -12 -16 -36 -59 -54
-95 -34 -69 -58 -116 -72 -140 -5 -8 -25 -49 -45 -90 -20 -41 -41 -82 -48 -90
-6 -8 -22 -42 -35 -75 -13 -33 -31 -72 -42 -87 -10 -14 -18 -36 -18 -47 0 -12
-36 -96 -80 -187 -44 -90 -80 -175 -80 -187 0 -12 -9 -35 -20 -52 -11 -16 -20
-40 -20 -53 0 -23 -26 -90 -56 -147 -9 -16 -20 -55 -24 -85 -8 -53 -23 -104
-62 -202 -10 -26 -18 -64 -18 -85 0 -21 -9 -51 -20 -68 -11 -16 -20 -40 -20
-53 0 -12 -7 -39 -16 -60 -8 -20 -18 -68 -21 -107 -3 -38 -14 -87 -24 -107
-11 -22 -19 -58 -19 -88 0 -28 -9 -76 -20 -107 -11 -32 -20 -73 -20 -93 0 -19
-7 -48 -16 -65 -14 -24 -18 -72 -22 -255 -3 -172 -8 -233 -20 -260 -35 -80
-36 -1008 -1 -1071 9 -16 15 -81 20 -194 4 -122 10 -179 21 -200 9 -17 19 -65
23 -109 4 -43 13 -93 21 -112 8 -18 14 -56 14 -84 0 -28 9 -72 19 -98 11 -26
22 -71 25 -101 3 -29 10 -59 16 -66 6 -7 13 -37 17 -66 3 -30 14 -70 23 -89 9
-19 20 -58 23 -86 3 -28 22 -85 41 -127 24 -50 36 -91 36 -119 0 -27 8 -52 20
-68 11 -14 20 -31 20 -38 0 -6 9 -29 20 -49 11 -21 20 -49 20 -63 0 -14 9 -38
20 -55 11 -16 20 -40 20 -53 0 -13 18 -60 40 -104 22 -45 40 -88 40 -95 0 -14
29 -79 111 -249 27 -56 49 -108 49 -116 0 -21 67 -153 85 -168 8 -7 40 -64 71
-127 31 -63 67 -126 79 -141 22 -26 46 -69 81 -142 9 -19 29 -50 45 -68 16
-18 36 -47 44 -65 38 -78 58 -114 80 -137 12 -14 32 -43 43 -66 11 -22 28 -46
37 -54 9 -8 26 -31 37 -53 11 -22 39 -61 63 -86 23 -25 50 -61 59 -78 9 -18
48 -68 86 -110 38 -43 70 -84 70 -92 0 -7 31 -45 69 -85 37 -39 81 -91 96
-116 35 -57 645 -667 703 -704 24 -15 85 -66 134 -112 50 -47 105 -92 122
-101 17 -9 65 -47 106 -84 41 -38 80 -69 87 -69 6 0 42 -27 80 -60 37 -33 73
-60 80 -60 6 0 38 -23 70 -51 32 -28 72 -58 88 -66 17 -9 46 -28 65 -43 19
-15 66 -44 103 -64 38 -20 80 -48 95 -62 47 -43 105 -46 110 -5 3 18 -13 40
-70 95 -40 40 -98 89 -129 109 -60 40 -200 181 -232 235 -10 17 -25 32 -33 32
-8 0 -25 18 -40 41 -14 23 -79 96 -144 164 -65 68 -126 138 -136 156 -9 19
-41 60 -70 92 -30 32 -54 64 -54 72 0 8 -18 35 -40 60 -22 25 -40 50 -40 55 0
5 -24 37 -53 72 -29 35 -65 83 -79 108 -14 25 -35 54 -47 64 -12 11 -21 25
-21 31 0 7 -18 35 -40 63 -22 27 -40 54 -40 59 0 5 -15 30 -34 54 -19 24 -53
80 -76 124 -23 44 -49 89 -59 100 -10 11 -39 65 -65 120 -26 55 -51 107 -56
115 -15 24 -70 138 -70 146 0 3 -9 17 -20 31 -11 14 -20 36 -20 49 0 12 -18
59 -40 103 -22 44 -40 87 -40 96 0 9 -16 49 -35 90 -19 41 -37 87 -40 102 -3
15 -14 46 -24 68 -11 22 -24 59 -30 83 -6 23 -16 61 -22 85 -6 23 -18 56 -26
72 -9 17 -19 65 -24 107 -4 43 -15 88 -23 100 -9 12 -16 31 -16 40 0 10 -9 44
-20 75 -11 32 -20 81 -20 111 0 33 -7 67 -20 92 -11 22 -20 55 -20 75 0 20 -7
52 -16 73 -10 23 -19 88 -25 171 -6 95 -14 145 -26 170 -17 33 -18 82 -18 641
1 554 2 608 18 641 12 24 20 76 26 170 4 74 13 144 19 156 7 12 15 54 18 95 4
40 15 90 25 110 12 23 19 59 19 95 0 36 8 75 20 102 11 24 20 52 20 62 0 11 9
37 20 59 11 22 20 56 20 77 0 21 9 55 20 76 11 20 20 47 20 60 0 12 9 39 20
60 11 20 20 43 20 49 0 7 9 24 20 38 11 14 20 36 20 50 0 14 9 43 20 65 11 22
19 50 20 63 0 13 9 40 20 60 45 85 100 209 100 226 0 11 12 35 28 55 30 39 41
58 126 228 33 65 74 135 93 156 18 20 33 44 33 52 0 8 13 29 29 47 15 18 36
49 46 68 10 19 33 53 51 74 19 22 34 45 34 52 0 7 24 41 54 76 29 35 61 79 71
98 24 47 600 621 667 664 29 19 77 55 106 80 30 25 58 46 64 46 6 0 30 15 52
34 23 19 58 41 76 50 19 9 47 24 62 32 34 19 68 4 68 -29 0 -13 -25 -70 -55
-128 -30 -57 -63 -122 -74 -144 -10 -22 -31 -55 -45 -74 -14 -19 -26 -43 -26
-54 0 -23 -16 -53 -52 -97 -15 -19 -28 -40 -28 -46 0 -7 -15 -39 -34 -73 -19
-33 -37 -70 -41 -83 -4 -13 -14 -30 -22 -39 -8 -10 -20 -39 -27 -66 -7 -27
-27 -69 -45 -93 -17 -24 -31 -54 -31 -67 0 -13 -9 -41 -20 -63 -11 -22 -20
-46 -20 -54 0 -9 -10 -37 -21 -63 -48 -107 -57 -130 -69 -163 -7 -19 -17 -53
-22 -75 -6 -22 -18 -58 -29 -80 -10 -22 -21 -62 -24 -89 -7 -48 -20 -87 -56
-157 -11 -20 -19 -54 -19 -75 0 -22 -9 -59 -20 -83 -11 -24 -20 -52 -20 -63 0
-10 -7 -32 -15 -48 -8 -16 -18 -61 -21 -102 -4 -40 -15 -90 -25 -110 -11 -21
-19 -57 -19 -80 0 -24 -5 -61 -11 -83 -6 -22 -17 -91 -24 -152 -7 -62 -18
-119 -25 -128 -8 -9 -15 -97 -21 -272 -5 -142 -14 -268 -19 -281 -13 -30 -13
-466 -1 -506 6 -17 14 -126 20 -242 8 -153 15 -219 26 -240 8 -16 15 -49 15
-74 1 -25 6 -65 11 -90 6 -25 16 -99 23 -166 9 -79 19 -129 29 -145 10 -13 17
-43 17 -66 0 -24 9 -69 20 -100 11 -32 20 -71 20 -88 1 -16 9 -48 20 -70 11
-22 19 -57 20 -77 0 -21 9 -57 19 -80 21 -49 61 -176 61 -196 0 -7 9 -30 19
-50 10 -20 29 -71 41 -112 12 -41 30 -93 40 -115 10 -22 21 -54 24 -71 3 -17
21 -66 40 -107 20 -42 36 -87 36 -100 0 -13 9 -36 20 -50 11 -14 20 -29 20
-34 1 -4 9 -26 20 -48 11 -22 19 -47 20 -56 0 -20 138 -298 161 -324 9 -11 26
-38 37 -60 19 -37 74 -145 123 -240 12 -22 31 -51 43 -65 13 -14 28 -39 35
-57 7 -17 22 -40 33 -50 11 -10 31 -39 43 -64 13 -25 31 -51 40 -59 9 -7 25
-30 35 -51 11 -20 42 -61 69 -91 28 -31 54 -65 58 -76 5 -11 52 -70 106 -131
53 -60 97 -113 97 -118 0 -4 41 -53 91 -108 50 -55 101 -116 114 -135 25 -39
109 -120 125 -120 5 0 16 -13 24 -28 18 -35 189 -207 236 -237 19 -13 80 -64
135 -114 55 -50 105 -91 112 -91 6 0 35 -22 65 -48 29 -27 73 -62 98 -77 25
-16 74 -54 110 -85 36 -32 77 -64 91 -71 98 -52 127 -69 139 -84 7 -9 32 -26
54 -37 23 -12 57 -34 76 -49 19 -16 40 -29 47 -29 7 0 27 -13 45 -29 18 -15
51 -37 73 -48 133 -67 194 -101 225 -124 42 -31 300 -159 321 -159 9 0 46 -15
85 -34 38 -19 83 -37 99 -41 17 -3 48 -14 70 -24 22 -11 61 -28 86 -40 25 -12
56 -21 68 -21 11 0 38 -9 58 -20 21 -11 49 -20 63 -20 14 0 35 -7 46 -15 12
-8 39 -19 60 -24 22 -5 57 -16 79 -25 22 -8 55 -15 73 -16 18 0 50 -9 72 -20
22 -11 49 -20 60 -20 12 0 33 -6 48 -14 15 -8 58 -19 95 -24 38 -6 75 -16 82
-22 7 -6 49 -15 92 -19 43 -4 89 -14 102 -20 12 -7 66 -16 119 -20 53 -4 106
-13 118 -19 11 -6 79 -14 150 -17 82 -4 145 -12 174 -23 40 -15 110 -17 690
-17 580 0 650 2 690 17 30 11 89 18 172 22 73 3 137 10 150 17 13 7 75 16 140
20 73 5 128 13 147 23 17 9 55 16 88 16 36 0 75 8 102 20 24 11 60 20 80 20
20 0 56 9 80 20 24 11 60 20 80 20 20 0 56 9 80 20 24 11 54 20 67 20 13 0 41
9 61 20 21 11 55 20 76 20 21 0 55 9 77 20 22 11 49 20 60 20 11 0 38 9 60 20
22 11 51 20 65 20 14 0 42 9 62 20 21 11 46 20 56 20 10 0 34 8 55 19 20 10
52 21 70 24 18 4 65 23 104 42 40 19 80 35 91 35 10 0 73 27 140 60 67 33 129
60 137 60 21 0 456 218 488 244 15 13 61 39 102 60 148 73 241 123 263 142 12
11 51 35 87 53 36 18 82 46 102 62 20 16 41 29 47 29 5 0 30 15 54 34 25 19
60 42 79 52 18 9 51 32 72 50 22 19 45 34 51 34 6 0 29 15 51 34 21 18 54 41
72 50 19 10 67 49 108 87 42 38 81 69 87 69 7 0 48 33 92 73 44 41 95 82 114
91 18 10 70 53 115 95 44 43 100 90 123 104 58 37 620 596 633 630 5 15 23 36
40 45 16 9 33 25 36 35 3 10 48 63 100 119 53 56 102 115 111 132 9 17 42 59
74 94 32 34 66 77 75 95 10 17 39 57 66 87 28 30 54 66 59 78 5 13 25 43 44
66 19 24 35 47 35 53 0 5 27 41 60 79 33 38 60 74 60 80 0 6 15 28 34 50 18
21 41 55 51 74 10 19 31 51 46 70 16 19 29 40 29 47 0 7 13 27 29 45 16 18 37
49 47 69 41 79 68 125 89 154 19 24 157 286 238 450 10 20 31 55 47 77 17 23
30 50 30 61 0 17 115 264 180 389 11 20 20 44 20 53 0 9 18 54 40 101 24 51
40 100 40 122 0 20 7 48 15 62 8 14 19 36 25 50 5 14 17 37 25 52 8 14 15 38
15 53 0 14 9 43 20 63 11 20 29 71 41 112 12 41 27 84 34 96 8 12 17 37 20 57
17 89 -72 33 -96 -61 -6 -23 -26 -61 -44 -85 -17 -23 -35 -58 -38 -77 -4 -19
-23 -57 -42 -84 -19 -27 -35 -59 -35 -71 0 -12 -15 -42 -34 -67 -19 -24 -42
-60 -51 -79 -34 -72 -58 -115 -84 -149 -15 -19 -49 -80 -76 -135 -27 -55 -59
-111 -71 -125 -13 -14 -30 -41 -39 -60 -22 -48 -72 -130 -99 -160 -12 -14 -27
-36 -33 -50 -6 -14 -39 -56 -73 -95 -33 -38 -68 -83 -77 -100 -9 -16 -52 -68
-96 -115 -44 -47 -90 -101 -102 -120 -12 -19 -64 -80 -114 -134 -50 -55 -91
-105 -91 -113 0 -18 -424 -448 -469 -475 -20 -12 -88 -70 -151 -128 -63 -59
-130 -115 -148 -124 -19 -10 -67 -49 -108 -87 -42 -38 -80 -69 -85 -69 -6 0
-44 -27 -84 -60 -40 -33 -77 -60 -82 -60 -5 0 -27 -15 -49 -33 -21 -19 -50
-40 -64 -47 -14 -7 -43 -26 -65 -41 -89 -65 -142 -99 -171 -113 -17 -7 -46
-27 -65 -43 -19 -16 -47 -37 -64 -45 -75 -37 -131 -70 -150 -87 -11 -10 -33
-25 -50 -33 -176 -90 -287 -149 -319 -171 -21 -15 -47 -27 -58 -27 -10 0 -36
-9 -56 -20 -84 -45 -291 -140 -306 -140 -9 0 -54 -18 -98 -40 -45 -22 -90 -40
-100 -40 -11 0 -36 -9 -58 -20 -22 -11 -49 -20 -60 -20 -11 0 -38 -9 -60 -20
-22 -11 -50 -20 -62 -20 -13 -1 -41 -9 -63 -20 -22 -11 -56 -20 -75 -20 -19 0
-53 -9 -75 -19 -22 -10 -65 -21 -95 -25 -30 -4 -60 -12 -66 -17 -7 -6 -43 -15
-81 -21 -37 -5 -79 -16 -93 -23 -14 -7 -57 -15 -96 -19 -39 -3 -84 -12 -100
-20 -16 -7 -69 -17 -119 -20 -49 -4 -108 -13 -130 -20 -22 -8 -102 -17 -178
-21 -81 -4 -153 -13 -172 -21 -50 -21 -720 -21 -770 0 -22 10 -93 17 -202 21
-92 4 -186 12 -208 17 -22 5 -82 16 -133 23 -51 7 -99 18 -106 24 -7 6 -42 14
-77 17 -35 3 -90 14 -122 25 -31 10 -70 19 -86 19 -16 0 -48 9 -72 20 -24 11
-61 20 -82 20 -21 0 -55 9 -77 20 -22 11 -55 20 -74 20 -20 0 -57 10 -83 21
-27 12 -66 30 -89 40 -23 11 -48 19 -57 19 -8 0 -34 9 -58 20 -24 11 -52 20
-62 20 -10 0 -55 18 -99 40 -45 22 -89 40 -98 40 -9 0 -52 17 -95 39 -44 21
-95 41 -113 45 -19 3 -50 19 -71 35 -20 16 -55 34 -78 40 -45 12 -127 55 -158
82 -11 10 -72 44 -136 77 -64 32 -132 70 -150 84 -19 14 -47 32 -64 40 -86 44
-103 54 -140 83 -22 17 -51 36 -65 43 -24 11 -78 48 -165 111 -22 15 -51 34
-65 41 -14 7 -54 41 -90 75 -36 34 -81 70 -100 80 -19 10 -66 47 -105 83 -38
35 -87 75 -108 89 -21 13 -79 62 -129 108 -50 47 -97 85 -103 85 -6 0 -53 44
-105 97 -52 53 -119 119 -149 147 -29 28 -64 67 -76 86 -13 19 -71 86 -129
148 -58 63 -106 119 -106 126 0 6 -34 49 -75 94 -41 45 -83 99 -94 120 -11 21
-27 45 -36 52 -9 8 -27 35 -40 60 -13 25 -31 52 -40 60 -9 7 -26 32 -37 54
-11 23 -31 53 -45 67 -13 15 -32 40 -41 56 -18 32 -59 96 -112 173 -70 104
-104 158 -132 215 -16 33 -33 67 -38 75 -38 67 -270 539 -270 550 0 14 -60
146 -100 222 -11 20 -20 46 -20 57 0 11 -18 58 -40 105 -22 47 -40 100 -40
118 0 18 -7 47 -16 63 -30 57 -53 130 -62 201 -6 40 -17 82 -25 95 -8 13 -18
60 -22 104 -4 44 -13 92 -21 107 -8 15 -14 37 -14 50 0 13 -7 37 -16 53 -11
20 -20 71 -25 147 -4 65 -14 129 -22 145 -8 15 -17 70 -21 121 -3 51 -11 103
-18 115 -17 29 -23 708 -9 887 13 164 36 317 50 334 7 8 15 63 18 123 4 69 13
125 24 156 11 26 19 62 19 80 1 18 9 50 20 72 11 22 19 52 20 68 0 15 9 44 20
64 11 21 20 49 20 63 0 33 37 155 61 202 10 20 19 48 19 62 0 14 18 62 40 108
22 46 40 92 40 103 0 11 6 29 14 40 7 11 28 54 46 95 18 41 38 82 45 90 7 8
15 32 19 52 4 21 17 50 30 65 13 15 32 46 43 68 48 94 58 112 83 145 15 19 42
62 59 95 57 110 92 170 110 190 10 11 26 34 34 50 9 17 53 71 97 120 45 50 90
106 100 125 23 43 422 440 443 440 8 0 45 27 81 60 37 33 70 60 75 60 5 0 42
27 81 60 39 33 77 60 84 60 6 0 29 14 50 31 37 31 175 105 371 201 55 26 117
57 137 68 20 11 46 20 58 20 11 0 38 9 60 20 22 11 50 20 62 20 13 0 38 9 56
20 18 11 42 20 55 20 12 0 42 9 66 20 24 11 57 20 75 20 17 1 49 8 71 17 22 8
81 19 130 24 50 5 108 17 130 26 35 14 88 16 421 16 326 0 389 -3 430 -16 27
-9 90 -21 139 -26 50 -5 98 -12 107 -16 23 -9 58 27 51 54 -7 27 -340 354
-383 376 -19 10 -58 39 -86 65 -27 26 -66 55 -85 65 -19 10 -49 31 -67 46 -18
16 -39 29 -47 29 -8 0 -29 13 -47 29 -18 16 -50 37 -70 47 -304 154 -487 244
-497 244 -16 0 -104 35 -153 61 -20 10 -46 19 -56 19 -11 0 -39 9 -63 20 -24
11 -61 20 -82 20 -21 0 -52 8 -70 17 -18 9 -48 20 -67 24 -19 4 -53 14 -75 23
-22 8 -61 15 -87 16 -26 0 -70 9 -98 20 -35 14 -74 20 -126 20 -48 0 -86 6
-105 15 -16 9 -66 18 -112 21 -45 3 -100 12 -122 19 -47 16 -542 27 -695 15z"/></g></svg>